{
	"asset":{
		"generator":"Khronos glTF Blender I/O v4.1.62",
		"version":"2.0"
	},
	"extensionsUsed":[
		"KHR_materials_specular"
	],
	"scene":0,
	"scenes":[
		{
			"name":"Scene",
			"nodes":[
				9
			]
		}
	],
	"nodes":[
		{
			"mesh":0,
			"name":"Road_1X_HalfCircle_City_Road_mat_0",
			"translation":[
				0,
				0,
				-0.001953125
			]
		},
		{
			"children":[
				0
			],
			"name":"Road_1X_HalfCircle",
			"scale":[
				0.009999999776482582,
				0.009999999776482582,
				0.009999999776482582
			],
			"translation":[
				0,
				0,
				-200
			]
		},
		{
			"mesh":1,
			"name":"Road_1X_Straight_City_Road_mat_0"
		},
		{
			"children":[
				2
			],
			"name":"Road_1X_Straight",
			"scale":[
				0.009999999776482582,
				0.009999999776482582,
				0.009999999776482582
			]
		},
		{
			"mesh":2,
			"name":"Road_T_Intersection_City_Intersection_mat_0",
			"translation":[
				0,
				0,
				0.0009765625
			]
		},
		{
			"mesh":3,
			"name":"Road_T_Intersection_City_Road_mat_0",
			"translation":[
				0,
				0,
				0.0009765625
			]
		},
		{
			"children":[
				4,
				5
			],
			"name":"Road_T_Intersection",
			"scale":[
				0.009999999776482582,
				0.009999999776482582,
				0.009999999776482582
			],
			"translation":[
				0,
				0,
				100
			]
		},
		{
			"children":[
				1,
				3,
				6
			],
			"name":"RootNode"
		},
		{
			"children":[
				7
			],
			"name":"44d681719dd5406c893cfafcb4a2585f.fbx",
			"rotation":[
				0.70710688829422,
				0,
				0,
				0.7071066498756409
			]
		},
		{
			"children":[
				8
			],
			"name":"Sketchfab_model",
			"rotation":[
				-0.70710688829422,
				0,
				0,
				0.7071066498756409
			]
		}
	],
	"materials":[
		{
			"doubleSided":true,
			"extensions":{
				"KHR_materials_specular":{
					"specularFactor":0
				}
			},
			"name":"City_Road_mat",
			"pbrMetallicRoughness":{
				"baseColorTexture":{
					"index":0
				},
				"metallicFactor":0
			}
		},
		{
			"doubleSided":true,
			"extensions":{
				"KHR_materials_specular":{
					"specularFactor":0
				}
			},
			"name":"City_Intersection_mat",
			"pbrMetallicRoughness":{
				"baseColorTexture":{
					"index":1
				},
				"metallicFactor":0
			}
		}
	],
	"meshes":[
		{
			"name":"Road_1X_HalfCircle_City_Road_mat_0",
			"primitives":[
				{
					"attributes":{
						"POSITION":0,
						"NORMAL":1,
						"TEXCOORD_0":2
					},
					"indices":3,
					"material":0
				}
			]
		},
		{
			"name":"Road_1X_Straight_City_Road_mat_0",
			"primitives":[
				{
					"attributes":{
						"POSITION":4,
						"NORMAL":5,
						"TEXCOORD_0":6
					},
					"indices":7,
					"material":0
				}
			]
		},
		{
			"name":"Road_T_Intersection_City_Intersection_mat_0",
			"primitives":[
				{
					"attributes":{
						"POSITION":8,
						"NORMAL":9,
						"TEXCOORD_0":10
					},
					"indices":11,
					"material":1
				}
			]
		},
		{
			"name":"Road_T_Intersection_City_Road_mat_0",
			"primitives":[
				{
					"attributes":{
						"POSITION":12,
						"NORMAL":13,
						"TEXCOORD_0":14
					},
					"indices":15,
					"material":0
				}
			]
		}
	],
	"textures":[
		{
			"sampler":0,
			"source":0
		},
		{
			"sampler":0,
			"source":1
		}
	],
	"images":[
		{
			"mimeType":"image/jpeg",
			"name":"City_Road_mat_baseColor",
			"uri":"City_Road_mat_baseColor.jpg"
		},
		{
			"mimeType":"image/jpeg",
			"name":"City_Intersection_mat_baseColor",
			"uri":"City_Intersection_mat_baseColor.jpg"
		}
	],
	"accessors":[
		{
			"bufferView":0,
			"componentType":5126,
			"count":240,
			"max":[
				6552.79296875,
				20.447185516357422,
				4657.0009765625
			],
			"min":[
				-6552.79296875,
				-2.232673898192039e-12,
				-1859.8951416015625
			],
			"type":"VEC3"
		},
		{
			"bufferView":1,
			"componentType":5126,
			"count":240,
			"type":"VEC3"
		},
		{
			"bufferView":2,
			"componentType":5126,
			"count":240,
			"type":"VEC2"
		},
		{
			"bufferView":3,
			"componentType":5123,
			"count":654,
			"type":"SCALAR"
		},
		{
			"bufferView":4,
			"componentType":5126,
			"count":44,
			"max":[
				7315.2001953125,
				20.44718360900879,
				1895.791015625
			],
			"min":[
				-7315.2001953125,
				-2.102961224213426e-13,
				-1895.7919921875
			],
			"type":"VEC3"
		},
		{
			"bufferView":5,
			"componentType":5126,
			"count":44,
			"type":"VEC3"
		},
		{
			"bufferView":6,
			"componentType":5126,
			"count":44,
			"type":"VEC2"
		},
		{
			"bufferView":7,
			"componentType":5123,
			"count":66,
			"type":"SCALAR"
		},
		{
			"bufferView":8,
			"componentType":5126,
			"count":4,
			"max":[
				1895.79296875,
				-10.223612785339355,
				1352.111328125
			],
			"min":[
				-1895.79296875,
				-10.2236328125,
				-1895.791015625
			],
			"type":"VEC3"
		},
		{
			"bufferView":9,
			"componentType":5126,
			"count":4,
			"type":"VEC3"
		},
		{
			"bufferView":10,
			"componentType":5126,
			"count":4,
			"type":"VEC2"
		},
		{
			"bufferView":11,
			"componentType":5123,
			"count":6,
			"type":"SCALAR"
		},
		{
			"bufferView":12,
			"componentType":5126,
			"count":150,
			"max":[
				1895.79296875,
				10.223672866821289,
				1895.794921875
			],
			"min":[
				-1895.79296875,
				-10.223672866821289,
				-1895.7939453125
			],
			"type":"VEC3"
		},
		{
			"bufferView":13,
			"componentType":5126,
			"count":150,
			"type":"VEC3"
		},
		{
			"bufferView":14,
			"componentType":5126,
			"count":150,
			"type":"VEC2"
		},
		{
			"bufferView":15,
			"componentType":5123,
			"count":180,
			"type":"SCALAR"
		}
	],
	"bufferViews":[
		{
			"buffer":0,
			"byteLength":2880,
			"byteOffset":0,
			"target":34962
		},
		{
			"buffer":0,
			"byteLength":2880,
			"byteOffset":2880,
			"target":34962
		},
		{
			"buffer":0,
			"byteLength":1920,
			"byteOffset":5760,
			"target":34962
		},
		{
			"buffer":0,
			"byteLength":1308,
			"byteOffset":7680,
			"target":34963
		},
		{
			"buffer":0,
			"byteLength":528,
			"byteOffset":8988,
			"target":34962
		},
		{
			"buffer":0,
			"byteLength":528,
			"byteOffset":9516,
			"target":34962
		},
		{
			"buffer":0,
			"byteLength":352,
			"byteOffset":10044,
			"target":34962
		},
		{
			"buffer":0,
			"byteLength":132,
			"byteOffset":10396,
			"target":34963
		},
		{
			"buffer":0,
			"byteLength":48,
			"byteOffset":10528,
			"target":34962
		},
		{
			"buffer":0,
			"byteLength":48,
			"byteOffset":10576,
			"target":34962
		},
		{
			"buffer":0,
			"byteLength":32,
			"byteOffset":10624,
			"target":34962
		},
		{
			"buffer":0,
			"byteLength":12,
			"byteOffset":10656,
			"target":34963
		},
		{
			"buffer":0,
			"byteLength":1800,
			"byteOffset":10668,
			"target":34962
		},
		{
			"buffer":0,
			"byteLength":1800,
			"byteOffset":12468,
			"target":34962
		},
		{
			"buffer":0,
			"byteLength":1200,
			"byteOffset":14268,
			"target":34962
		},
		{
			"buffer":0,
			"byteLength":360,
			"byteOffset":15468,
			"target":34963
		}
	],
	"samplers":[
		{
			"magFilter":9729,
			"minFilter":9987
		}
	],
	"buffers":[
		{
			"byteLength":15828,
			"uri":"test.bin"
		}
	]
}
